<?xml version="1.0" encoding="UTF-8"?>
<svg xmlns="http://www.w3.org/2000/svg" width="210mm" height="297mm" viewBox="0 0 210 297">
<defs>
<style>
  @page { margin: 0; }
  text { font-family: 'Segoe UI', 'Arial', sans-serif; }
  .title { font-size: 7mm; font-weight: bold; }
  .sub { font-size: 4.5mm; }
  .body { font-size: 3.5mm; }
  .small { font-size: 2.8mm; }
  .cutline { stroke: #666; stroke-width: 0.3; stroke-dasharray: 3,2; fill: none; }
  .foldline { stroke: #999; stroke-width: 0.2; stroke-dasharray: 1,3; fill: none; }
</style>
</defs>
<rect width="210" height="297" fill="white"/>
<text x="15" y="12" class="title" fill="#333">Таблички: SCP-моб и obby-паркур — вырежи, повесь</text>
<line x1="15" y1="13.5" x2="195" y2="13.5" stroke="#ccc" stroke-width="0.3"/>

<rect x="5" y="9" width="95" height="80" class="cutline"/>
<rect x="8" y="12" width="90" height="75" rx="3" fill="#d8d8d8" stroke="#666" stroke-width="0.5"/>
<rect x="8" y="12" width="90" height="15" fill="#cc2222" rx="3"/>
<text x="53" y="22" class="sub" fill="white" text-anchor="middle" font-weight="bold">⚠ SCP ОБЪЕКТ ⚠</text>
<circle cx="53" cy="54" r="15" fill="none" stroke="#333" stroke-width="2"/>
<circle cx="53" cy="54" r="8" fill="none" stroke="#333" stroke-width="1.5"/>
<path d="M45,54 L53,44 L61,54" fill="none" stroke="#333" stroke-width="1.5"/>
<text x="53" y="77" class="sub" fill="#333" text-anchor="middle">ЗОМБИ-МОБ</text>
<text x="53" y="84" class="small" fill="#666" text-anchor="middle">Победи 3 мячами!</text>
<rect x="107" y="9" width="95" height="80" class="cutline"/>
<rect x="110" y="12" width="90" height="75" rx="3" fill="#d8d8d8" stroke="#666" stroke-width="0.5"/>
<rect x="110" y="12" width="90" height="15" fill="#cc2222" rx="3"/>
<text x="155" y="22" class="sub" fill="white" text-anchor="middle" font-weight="bold">⚠ SCP ОБЪЕКТ ⚠</text>
<circle cx="155" cy="54" r="15" fill="none" stroke="#333" stroke-width="2"/>
<circle cx="155" cy="54" r="8" fill="none" stroke="#333" stroke-width="1.5"/>
<path d="M147,54 L155,44 L163,54" fill="none" stroke="#333" stroke-width="1.5"/>
<text x="155" y="77" class="sub" fill="#333" text-anchor="middle">ЗОМБИ-МОБ</text>
<text x="155" y="84" class="small" fill="#666" text-anchor="middle">Победи 3 мячами!</text>
<rect x="5" y="102" width="95" height="80" class="cutline"/>
<rect x="8" y="105" width="90" height="75" rx="3" fill="#e8f0e8" stroke="#4a8a3a" stroke-width="0.5"/>
<rect x="8" y="105" width="90" height="15" rx="3" fill="#4a8a3a"/>
<text x="53" y="115" class="sub" fill="white" text-anchor="middle" font-weight="bold">🎮 obby</text>
<text x="53" y="143" class="title" fill="#4a8a3a" text-anchor="middle" font-size="10mm">ЭТАЖ 1</text>
<rect x="38" y="153" width="10" height="20" fill="#cc4444" rx="1"/>
<rect x="38" y="148" width="10" height="5" fill="#888"/>
<text x="53" y="170" class="body" fill="#4a8a3a" text-anchor="middle">ПРЕОДОЛЕЙ ЛАВУ!</text>
<text x="53" y="177" class="small" fill="#666" text-anchor="middle">Не наступай на 🔴</text>
<rect x="107" y="102" width="95" height="80" class="cutline"/>
<rect x="110" y="105" width="90" height="75" rx="3" fill="#e8f0e8" stroke="#4a8a3a" stroke-width="0.5"/>
<rect x="110" y="105" width="90" height="15" rx="3" fill="#4a8a3a"/>
<text x="155" y="115" class="sub" fill="white" text-anchor="middle" font-weight="bold">🎮 obby</text>
<text x="155" y="143" class="title" fill="#4a8a3a" text-anchor="middle" font-size="10mm">ЭТАЖ 2</text>
<rect x="140" y="153" width="10" height="20" fill="#cc4444" rx="1"/>
<rect x="140" y="148" width="10" height="5" fill="#888"/>
<text x="155" y="170" class="body" fill="#4a8a3a" text-anchor="middle">ПРЕОДОЛЕЙ ЛАВУ!</text>
<text x="155" y="177" class="small" fill="#666" text-anchor="middle">Не наступай на 🔴</text>
<rect x="8" y="200" width="195" height="80" class="cutline"/>
<rect x="10" y="202" width="190" height="76" rx="4" fill="#d8b0f0" stroke="#7733aa" stroke-width="2"/>
<ellipse cx="105" cy="240" rx="50" ry="25" fill="#9955cc" opacity="0.3"/>
<ellipse cx="105" cy="240" rx="40" ry="20" fill="#bb77ee" opacity="0.3"/>
<path d="M60,280 Q105,220 150,280" fill="none" stroke="#aa44dd" stroke-width="3"/>
<path d="M65,280 Q105,228 145,280" fill="none" stroke="#cc66ff" stroke-width="1.5" opacity="0.6"/>
<text x="105" y="215" class="title" fill="#aa44dd" text-anchor="middle" font-size="8mm">🌀 ПОРТАЛ В ЭНД</text>
<text x="105" y="228" class="sub" fill="#cc66ff" text-anchor="middle">THE VOID</text>
<text x="105" y="255" class="body" fill="#7733aa" text-anchor="middle">Собери все 4 ресурса и возвращайся сюда!</text>
<text x="105" y="265" class="body" fill="#7733aa" text-anchor="middle">Когда все на месте — появится ЭНДЕР-ДРАКОН 🐉</text>
</svg>
