<?xml version="1.0" encoding="UTF-8"?>
<svg xmlns="http://www.w3.org/2000/svg" width="210mm" height="297mm" viewBox="0 0 210 297">
<defs>
<style>
  @page { margin: 0; }
  text { font-family: 'Segoe UI', 'Arial', sans-serif; }
  .title { font-size: 7mm; font-weight: bold; }
  .sub { font-size: 4.5mm; }
  .body { font-size: 3.5mm; }
  .small { font-size: 2.8mm; }
  .cutline { stroke: #666; stroke-width: 0.3; stroke-dasharray: 3,2; fill: none; }
  .foldline { stroke: #999; stroke-width: 0.2; stroke-dasharray: 1,3; fill: none; }
</style>
</defs>
<rect width="210" height="297" fill="white"/>
<text x="15" y="12" class="title" fill="#333">Обклейка для сундуков — коричневая текстура «под дерево» (4 листа)</text>
<line x1="15" y1="13.5" x2="195" y2="13.5" stroke="#ccc" stroke-width="0.3"/>

<rect x="3.0" y="25" width="30" height="14" rx="1" fill="#b8956a" stroke="#8b6914" stroke-width="0.5"/>
<line x1="8.0" y1="28" x2="28.0" y2="36" stroke="#7a5a30" stroke-width="0.3" opacity="0.4"/>
<rect x="35.0" y="25" width="30" height="14" rx="1" fill="#c8a070" stroke="#8b6914" stroke-width="0.5"/>
<rect x="67.0" y="25" width="30" height="14" rx="1" fill="#a08050" stroke="#8b6914" stroke-width="0.5"/>
<rect x="99.0" y="25" width="30" height="14" rx="1" fill="#b89060" stroke="#8b6914" stroke-width="0.5"/>
<line x1="104.0" y1="28" x2="124.0" y2="36" stroke="#7a5a30" stroke-width="0.3" opacity="0.4"/>
<rect x="131.0" y="25" width="30" height="14" rx="1" fill="#c0a068" stroke="#8b6914" stroke-width="0.5"/>
<rect x="163.0" y="25" width="30" height="14" rx="1" fill="#b08858" stroke="#8b6914" stroke-width="0.5"/>
<rect x="19.0" y="41" width="30" height="14" rx="1" fill="#c8a070" stroke="#8b6914" stroke-width="0.5"/>
<rect x="51.0" y="41" width="30" height="14" rx="1" fill="#a08050" stroke="#8b6914" stroke-width="0.5"/>
<rect x="83.0" y="41" width="30" height="14" rx="1" fill="#b89060" stroke="#8b6914" stroke-width="0.5"/>
<line x1="88.0" y1="44" x2="108.0" y2="52" stroke="#7a5a30" stroke-width="0.3" opacity="0.4"/>
<rect x="115.0" y="41" width="30" height="14" rx="1" fill="#c0a068" stroke="#8b6914" stroke-width="0.5"/>
<rect x="147.0" y="41" width="30" height="14" rx="1" fill="#b08858" stroke="#8b6914" stroke-width="0.5"/>
<rect x="3.0" y="57" width="30" height="14" rx="1" fill="#a08050" stroke="#8b6914" stroke-width="0.5"/>
<rect x="35.0" y="57" width="30" height="14" rx="1" fill="#b89060" stroke="#8b6914" stroke-width="0.5"/>
<line x1="40.0" y1="60" x2="60.0" y2="68" stroke="#7a5a30" stroke-width="0.3" opacity="0.4"/>
<rect x="67.0" y="57" width="30" height="14" rx="1" fill="#c0a068" stroke="#8b6914" stroke-width="0.5"/>
<rect x="99.0" y="57" width="30" height="14" rx="1" fill="#b08858" stroke="#8b6914" stroke-width="0.5"/>
<rect x="131.0" y="57" width="30" height="14" rx="1" fill="#c8a870" stroke="#8b6914" stroke-width="0.5"/>
<line x1="136.0" y1="60" x2="156.0" y2="68" stroke="#7a5a30" stroke-width="0.3" opacity="0.4"/>
<rect x="163.0" y="57" width="30" height="14" rx="1" fill="#b8956a" stroke="#8b6914" stroke-width="0.5"/>
<rect x="19.0" y="73" width="30" height="14" rx="1" fill="#b89060" stroke="#8b6914" stroke-width="0.5"/>
<line x1="24.0" y1="76" x2="44.0" y2="84" stroke="#7a5a30" stroke-width="0.3" opacity="0.4"/>
<rect x="51.0" y="73" width="30" height="14" rx="1" fill="#c0a068" stroke="#8b6914" stroke-width="0.5"/>
<rect x="83.0" y="73" width="30" height="14" rx="1" fill="#b08858" stroke="#8b6914" stroke-width="0.5"/>
<rect x="115.0" y="73" width="30" height="14" rx="1" fill="#c8a870" stroke="#8b6914" stroke-width="0.5"/>
<line x1="120.0" y1="76" x2="140.0" y2="84" stroke="#7a5a30" stroke-width="0.3" opacity="0.4"/>
<rect x="147.0" y="73" width="30" height="14" rx="1" fill="#b8956a" stroke="#8b6914" stroke-width="0.5"/>
<rect x="3.0" y="89" width="30" height="14" rx="1" fill="#c0a068" stroke="#8b6914" stroke-width="0.5"/>
<rect x="35.0" y="89" width="30" height="14" rx="1" fill="#b08858" stroke="#8b6914" stroke-width="0.5"/>
<rect x="67.0" y="89" width="30" height="14" rx="1" fill="#c8a870" stroke="#8b6914" stroke-width="0.5"/>
<line x1="72.0" y1="92" x2="92.0" y2="100" stroke="#7a5a30" stroke-width="0.3" opacity="0.4"/>
<rect x="99.0" y="89" width="30" height="14" rx="1" fill="#b8956a" stroke="#8b6914" stroke-width="0.5"/>
<rect x="131.0" y="89" width="30" height="14" rx="1" fill="#c8a070" stroke="#8b6914" stroke-width="0.5"/>
<rect x="163.0" y="89" width="30" height="14" rx="1" fill="#a08050" stroke="#8b6914" stroke-width="0.5"/>
<line x1="168.0" y1="92" x2="188.0" y2="100" stroke="#7a5a30" stroke-width="0.3" opacity="0.4"/>
<rect x="19.0" y="105" width="30" height="14" rx="1" fill="#b08858" stroke="#8b6914" stroke-width="0.5"/>
<rect x="51.0" y="105" width="30" height="14" rx="1" fill="#c8a870" stroke="#8b6914" stroke-width="0.5"/>
<line x1="56.0" y1="108" x2="76.0" y2="116" stroke="#7a5a30" stroke-width="0.3" opacity="0.4"/>
<rect x="83.0" y="105" width="30" height="14" rx="1" fill="#b8956a" stroke="#8b6914" stroke-width="0.5"/>
<rect x="115.0" y="105" width="30" height="14" rx="1" fill="#c8a070" stroke="#8b6914" stroke-width="0.5"/>
<rect x="147.0" y="105" width="30" height="14" rx="1" fill="#a08050" stroke="#8b6914" stroke-width="0.5"/>
<line x1="152.0" y1="108" x2="172.0" y2="116" stroke="#7a5a30" stroke-width="0.3" opacity="0.4"/>
<rect x="3.0" y="121" width="30" height="14" rx="1" fill="#c8a870" stroke="#8b6914" stroke-width="0.5"/>
<line x1="8.0" y1="124" x2="28.0" y2="132" stroke="#7a5a30" stroke-width="0.3" opacity="0.4"/>
<rect x="35.0" y="121" width="30" height="14" rx="1" fill="#b8956a" stroke="#8b6914" stroke-width="0.5"/>
<rect x="67.0" y="121" width="30" height="14" rx="1" fill="#c8a070" stroke="#8b6914" stroke-width="0.5"/>
<rect x="99.0" y="121" width="30" height="14" rx="1" fill="#a08050" stroke="#8b6914" stroke-width="0.5"/>
<line x1="104.0" y1="124" x2="124.0" y2="132" stroke="#7a5a30" stroke-width="0.3" opacity="0.4"/>
<rect x="131.0" y="121" width="30" height="14" rx="1" fill="#b89060" stroke="#8b6914" stroke-width="0.5"/>
<rect x="163.0" y="121" width="30" height="14" rx="1" fill="#c0a068" stroke="#8b6914" stroke-width="0.5"/>
<rect x="19.0" y="137" width="30" height="14" rx="1" fill="#b8956a" stroke="#8b6914" stroke-width="0.5"/>
<rect x="51.0" y="137" width="30" height="14" rx="1" fill="#c8a070" stroke="#8b6914" stroke-width="0.5"/>
<rect x="83.0" y="137" width="30" height="14" rx="1" fill="#a08050" stroke="#8b6914" stroke-width="0.5"/>
<line x1="88.0" y1="140" x2="108.0" y2="148" stroke="#7a5a30" stroke-width="0.3" opacity="0.4"/>
<rect x="115.0" y="137" width="30" height="14" rx="1" fill="#b89060" stroke="#8b6914" stroke-width="0.5"/>
<rect x="147.0" y="137" width="30" height="14" rx="1" fill="#c0a068" stroke="#8b6914" stroke-width="0.5"/>
<rect x="3.0" y="153" width="30" height="14" rx="1" fill="#c8a070" stroke="#8b6914" stroke-width="0.5"/>
<rect x="35.0" y="153" width="30" height="14" rx="1" fill="#a08050" stroke="#8b6914" stroke-width="0.5"/>
<line x1="40.0" y1="156" x2="60.0" y2="164" stroke="#7a5a30" stroke-width="0.3" opacity="0.4"/>
<rect x="67.0" y="153" width="30" height="14" rx="1" fill="#b89060" stroke="#8b6914" stroke-width="0.5"/>
<rect x="99.0" y="153" width="30" height="14" rx="1" fill="#c0a068" stroke="#8b6914" stroke-width="0.5"/>
<rect x="131.0" y="153" width="30" height="14" rx="1" fill="#b08858" stroke="#8b6914" stroke-width="0.5"/>
<line x1="136.0" y1="156" x2="156.0" y2="164" stroke="#7a5a30" stroke-width="0.3" opacity="0.4"/>
<rect x="163.0" y="153" width="30" height="14" rx="1" fill="#c8a870" stroke="#8b6914" stroke-width="0.5"/>
<rect x="19.0" y="169" width="30" height="14" rx="1" fill="#a08050" stroke="#8b6914" stroke-width="0.5"/>
<line x1="24.0" y1="172" x2="44.0" y2="180" stroke="#7a5a30" stroke-width="0.3" opacity="0.4"/>
<rect x="51.0" y="169" width="30" height="14" rx="1" fill="#b89060" stroke="#8b6914" stroke-width="0.5"/>
<rect x="83.0" y="169" width="30" height="14" rx="1" fill="#c0a068" stroke="#8b6914" stroke-width="0.5"/>
<rect x="115.0" y="169" width="30" height="14" rx="1" fill="#b08858" stroke="#8b6914" stroke-width="0.5"/>
<line x1="120.0" y1="172" x2="140.0" y2="180" stroke="#7a5a30" stroke-width="0.3" opacity="0.4"/>
<rect x="147.0" y="169" width="30" height="14" rx="1" fill="#c8a870" stroke="#8b6914" stroke-width="0.5"/>
<rect x="3.0" y="185" width="30" height="14" rx="1" fill="#b89060" stroke="#8b6914" stroke-width="0.5"/>
<rect x="35.0" y="185" width="30" height="14" rx="1" fill="#c0a068" stroke="#8b6914" stroke-width="0.5"/>
<rect x="67.0" y="185" width="30" height="14" rx="1" fill="#b08858" stroke="#8b6914" stroke-width="0.5"/>
<line x1="72.0" y1="188" x2="92.0" y2="196" stroke="#7a5a30" stroke-width="0.3" opacity="0.4"/>
<rect x="99.0" y="185" width="30" height="14" rx="1" fill="#c8a870" stroke="#8b6914" stroke-width="0.5"/>
<rect x="131.0" y="185" width="30" height="14" rx="1" fill="#b8956a" stroke="#8b6914" stroke-width="0.5"/>
<rect x="163.0" y="185" width="30" height="14" rx="1" fill="#c8a070" stroke="#8b6914" stroke-width="0.5"/>
<line x1="168.0" y1="188" x2="188.0" y2="196" stroke="#7a5a30" stroke-width="0.3" opacity="0.4"/>
<rect x="19.0" y="201" width="30" height="14" rx="1" fill="#c0a068" stroke="#8b6914" stroke-width="0.5"/>
<rect x="51.0" y="201" width="30" height="14" rx="1" fill="#b08858" stroke="#8b6914" stroke-width="0.5"/>
<line x1="56.0" y1="204" x2="76.0" y2="212" stroke="#7a5a30" stroke-width="0.3" opacity="0.4"/>
<rect x="83.0" y="201" width="30" height="14" rx="1" fill="#c8a870" stroke="#8b6914" stroke-width="0.5"/>
<rect x="115.0" y="201" width="30" height="14" rx="1" fill="#b8956a" stroke="#8b6914" stroke-width="0.5"/>
<rect x="147.0" y="201" width="30" height="14" rx="1" fill="#c8a070" stroke="#8b6914" stroke-width="0.5"/>
<line x1="152.0" y1="204" x2="172.0" y2="212" stroke="#7a5a30" stroke-width="0.3" opacity="0.4"/>
<rect x="3.0" y="217" width="30" height="14" rx="1" fill="#b08858" stroke="#8b6914" stroke-width="0.5"/>
<line x1="8.0" y1="220" x2="28.0" y2="228" stroke="#7a5a30" stroke-width="0.3" opacity="0.4"/>
<rect x="35.0" y="217" width="30" height="14" rx="1" fill="#c8a870" stroke="#8b6914" stroke-width="0.5"/>
<rect x="67.0" y="217" width="30" height="14" rx="1" fill="#b8956a" stroke="#8b6914" stroke-width="0.5"/>
<rect x="99.0" y="217" width="30" height="14" rx="1" fill="#c8a070" stroke="#8b6914" stroke-width="0.5"/>
<line x1="104.0" y1="220" x2="124.0" y2="228" stroke="#7a5a30" stroke-width="0.3" opacity="0.4"/>
<rect x="131.0" y="217" width="30" height="14" rx="1" fill="#a08050" stroke="#8b6914" stroke-width="0.5"/>
<rect x="163.0" y="217" width="30" height="14" rx="1" fill="#b89060" stroke="#8b6914" stroke-width="0.5"/>
<rect x="19.0" y="233" width="30" height="14" rx="1" fill="#c8a870" stroke="#8b6914" stroke-width="0.5"/>
<rect x="51.0" y="233" width="30" height="14" rx="1" fill="#b8956a" stroke="#8b6914" stroke-width="0.5"/>
<rect x="83.0" y="233" width="30" height="14" rx="1" fill="#c8a070" stroke="#8b6914" stroke-width="0.5"/>
<line x1="88.0" y1="236" x2="108.0" y2="244" stroke="#7a5a30" stroke-width="0.3" opacity="0.4"/>
<rect x="115.0" y="233" width="30" height="14" rx="1" fill="#a08050" stroke="#8b6914" stroke-width="0.5"/>
<rect x="147.0" y="233" width="30" height="14" rx="1" fill="#b89060" stroke="#8b6914" stroke-width="0.5"/>
<rect x="3.0" y="249" width="30" height="14" rx="1" fill="#b8956a" stroke="#8b6914" stroke-width="0.5"/>
<rect x="35.0" y="249" width="30" height="14" rx="1" fill="#c8a070" stroke="#8b6914" stroke-width="0.5"/>
<line x1="40.0" y1="252" x2="60.0" y2="260" stroke="#7a5a30" stroke-width="0.3" opacity="0.4"/>
<rect x="67.0" y="249" width="30" height="14" rx="1" fill="#a08050" stroke="#8b6914" stroke-width="0.5"/>
<rect x="99.0" y="249" width="30" height="14" rx="1" fill="#b89060" stroke="#8b6914" stroke-width="0.5"/>
<rect x="131.0" y="249" width="30" height="14" rx="1" fill="#c0a068" stroke="#8b6914" stroke-width="0.5"/>
<line x1="136.0" y1="252" x2="156.0" y2="260" stroke="#7a5a30" stroke-width="0.3" opacity="0.4"/>
<rect x="163.0" y="249" width="30" height="14" rx="1" fill="#b08858" stroke="#8b6914" stroke-width="0.5"/>
<rect x="19.0" y="265" width="30" height="14" rx="1" fill="#c8a070" stroke="#8b6914" stroke-width="0.5"/>
<line x1="24.0" y1="268" x2="44.0" y2="276" stroke="#7a5a30" stroke-width="0.3" opacity="0.4"/>
<rect x="51.0" y="265" width="30" height="14" rx="1" fill="#a08050" stroke="#8b6914" stroke-width="0.5"/>
<rect x="83.0" y="265" width="30" height="14" rx="1" fill="#b89060" stroke="#8b6914" stroke-width="0.5"/>
<rect x="115.0" y="265" width="30" height="14" rx="1" fill="#c0a068" stroke="#8b6914" stroke-width="0.5"/>
<line x1="120.0" y1="268" x2="140.0" y2="276" stroke="#7a5a30" stroke-width="0.3" opacity="0.4"/>
<rect x="147.0" y="265" width="30" height="14" rx="1" fill="#b08858" stroke="#8b6914" stroke-width="0.5"/>
<rect x="3.0" y="281" width="30" height="14" rx="1" fill="#a08050" stroke="#8b6914" stroke-width="0.5"/>
<rect x="35.0" y="281" width="30" height="14" rx="1" fill="#b89060" stroke="#8b6914" stroke-width="0.5"/>
<rect x="67.0" y="281" width="30" height="14" rx="1" fill="#c0a068" stroke="#8b6914" stroke-width="0.5"/>
<line x1="72.0" y1="284" x2="92.0" y2="292" stroke="#7a5a30" stroke-width="0.3" opacity="0.4"/>
<rect x="99.0" y="281" width="30" height="14" rx="1" fill="#b08858" stroke="#8b6914" stroke-width="0.5"/>
<rect x="131.0" y="281" width="30" height="14" rx="1" fill="#c8a870" stroke="#8b6914" stroke-width="0.5"/>
<rect x="163.0" y="281" width="30" height="14" rx="1" fill="#b8956a" stroke="#8b6914" stroke-width="0.5"/>
<line x1="168.0" y1="284" x2="188.0" y2="292" stroke="#7a5a30" stroke-width="0.3" opacity="0.4"/>
<rect x="19.0" y="297" width="30" height="14" rx="1" fill="#b89060" stroke="#8b6914" stroke-width="0.5"/>
<rect x="51.0" y="297" width="30" height="14" rx="1" fill="#c0a068" stroke="#8b6914" stroke-width="0.5"/>
<line x1="56.0" y1="300" x2="76.0" y2="308" stroke="#7a5a30" stroke-width="0.3" opacity="0.4"/>
<rect x="83.0" y="297" width="30" height="14" rx="1" fill="#b08858" stroke="#8b6914" stroke-width="0.5"/>
<rect x="115.0" y="297" width="30" height="14" rx="1" fill="#c8a870" stroke="#8b6914" stroke-width="0.5"/>
<rect x="147.0" y="297" width="30" height="14" rx="1" fill="#b8956a" stroke="#8b6914" stroke-width="0.5"/>
<line x1="152.0" y1="300" x2="172.0" y2="308" stroke="#7a5a30" stroke-width="0.3" opacity="0.4"/>
<text x="105" y="285" class="body" fill="#6b4f2e" text-anchor="middle">Распечатай 4+ листа, обклей коробки — получатся сундуки</text>
</svg>
