<?xml version="1.0" encoding="UTF-8"?>
<svg xmlns="http://www.w3.org/2000/svg" viewBox="0 0 800 1131">
<rect width="800" height="1131" fill="#ffffff"/>
<rect x="0" y="0" width="800" height="24" fill="#4a7b2a"/>
<text x="20" y="17" font-size="16" fill="#ffffff" font-family="Arial,sans-serif">Сердечки HP — по 5 на каждого игрока</text>

<rect x="70" y="70" width="160" height="280" fill="none" stroke="#888" stroke-width="1" stroke-dasharray="6,4"/>
<circle cx="130" cy="135" r="45" fill="#e83030" stroke="#aa1010" stroke-width="4"/>
<circle cx="190" cy="135" r="45" fill="#e83030" stroke="#aa1010" stroke-width="4"/>
<polygon points="100,180 220,180 160,240" fill="#e83030" stroke="#aa1010" stroke-width="4"/>
<circle cx="140" cy="110" r="14" fill="white" opacity="0.4"/>
<text x="160" y="280" font-size="28" fill="#aa1010" font-family="Arial,sans-serif" text-anchor="middle" font-weight="bold">❤ HP</text>
<rect x="250" y="70" width="160" height="280" fill="none" stroke="#888" stroke-width="1" stroke-dasharray="6,4"/>
<circle cx="310" cy="135" r="45" fill="#e83030" stroke="#aa1010" stroke-width="4"/>
<circle cx="370" cy="135" r="45" fill="#e83030" stroke="#aa1010" stroke-width="4"/>
<polygon points="280,180 400,180 340,240" fill="#e83030" stroke="#aa1010" stroke-width="4"/>
<circle cx="320" cy="110" r="14" fill="white" opacity="0.4"/>
<text x="340" y="280" font-size="28" fill="#aa1010" font-family="Arial,sans-serif" text-anchor="middle" font-weight="bold">❤ HP</text>
<rect x="430" y="70" width="160" height="280" fill="none" stroke="#888" stroke-width="1" stroke-dasharray="6,4"/>
<circle cx="490" cy="135" r="45" fill="#e83030" stroke="#aa1010" stroke-width="4"/>
<circle cx="550" cy="135" r="45" fill="#e83030" stroke="#aa1010" stroke-width="4"/>
<polygon points="460,180 580,180 520,240" fill="#e83030" stroke="#aa1010" stroke-width="4"/>
<circle cx="500" cy="110" r="14" fill="white" opacity="0.4"/>
<text x="520" y="280" font-size="28" fill="#aa1010" font-family="Arial,sans-serif" text-anchor="middle" font-weight="bold">❤ HP</text>
<rect x="610" y="70" width="160" height="280" fill="none" stroke="#888" stroke-width="1" stroke-dasharray="6,4"/>
<circle cx="670" cy="135" r="45" fill="#e83030" stroke="#aa1010" stroke-width="4"/>
<circle cx="730" cy="135" r="45" fill="#e83030" stroke="#aa1010" stroke-width="4"/>
<polygon points="640,180 760,180 700,240" fill="#e83030" stroke="#aa1010" stroke-width="4"/>
<circle cx="680" cy="110" r="14" fill="white" opacity="0.4"/>
<text x="700" y="280" font-size="28" fill="#aa1010" font-family="Arial,sans-serif" text-anchor="middle" font-weight="bold">❤ HP</text>
<rect x="70" y="390" width="160" height="280" fill="none" stroke="#888" stroke-width="1" stroke-dasharray="6,4"/>
<circle cx="130" cy="455" r="45" fill="#e83030" stroke="#aa1010" stroke-width="4"/>
<circle cx="190" cy="455" r="45" fill="#e83030" stroke="#aa1010" stroke-width="4"/>
<polygon points="100,500 220,500 160,560" fill="#e83030" stroke="#aa1010" stroke-width="4"/>
<circle cx="140" cy="430" r="14" fill="white" opacity="0.4"/>
<text x="160" y="600" font-size="28" fill="#aa1010" font-family="Arial,sans-serif" text-anchor="middle" font-weight="bold">❤ HP</text>
<rect x="250" y="390" width="160" height="280" fill="none" stroke="#888" stroke-width="1" stroke-dasharray="6,4"/>
<circle cx="310" cy="455" r="45" fill="#e83030" stroke="#aa1010" stroke-width="4"/>
<circle cx="370" cy="455" r="45" fill="#e83030" stroke="#aa1010" stroke-width="4"/>
<polygon points="280,500 400,500 340,560" fill="#e83030" stroke="#aa1010" stroke-width="4"/>
<circle cx="320" cy="430" r="14" fill="white" opacity="0.4"/>
<text x="340" y="600" font-size="28" fill="#aa1010" font-family="Arial,sans-serif" text-anchor="middle" font-weight="bold">❤ HP</text>
<rect x="430" y="390" width="160" height="280" fill="none" stroke="#888" stroke-width="1" stroke-dasharray="6,4"/>
<circle cx="490" cy="455" r="45" fill="#e83030" stroke="#aa1010" stroke-width="4"/>
<circle cx="550" cy="455" r="45" fill="#e83030" stroke="#aa1010" stroke-width="4"/>
<polygon points="460,500 580,500 520,560" fill="#e83030" stroke="#aa1010" stroke-width="4"/>
<circle cx="500" cy="430" r="14" fill="white" opacity="0.4"/>
<text x="520" y="600" font-size="28" fill="#aa1010" font-family="Arial,sans-serif" text-anchor="middle" font-weight="bold">❤ HP</text>
<rect x="610" y="390" width="160" height="280" fill="none" stroke="#888" stroke-width="1" stroke-dasharray="6,4"/>
<circle cx="670" cy="455" r="45" fill="#e83030" stroke="#aa1010" stroke-width="4"/>
<circle cx="730" cy="455" r="45" fill="#e83030" stroke="#aa1010" stroke-width="4"/>
<polygon points="640,500 760,500 700,560" fill="#e83030" stroke="#aa1010" stroke-width="4"/>
<circle cx="680" cy="430" r="14" fill="white" opacity="0.4"/>
<text x="700" y="600" font-size="28" fill="#aa1010" font-family="Arial,sans-serif" text-anchor="middle" font-weight="bold">❤ HP</text>
<rect x="70" y="710" width="160" height="280" fill="none" stroke="#888" stroke-width="1" stroke-dasharray="6,4"/>
<circle cx="130" cy="775" r="45" fill="#e83030" stroke="#aa1010" stroke-width="4"/>
<circle cx="190" cy="775" r="45" fill="#e83030" stroke="#aa1010" stroke-width="4"/>
<polygon points="100,820 220,820 160,880" fill="#e83030" stroke="#aa1010" stroke-width="4"/>
<circle cx="140" cy="750" r="14" fill="white" opacity="0.4"/>
<text x="160" y="920" font-size="28" fill="#aa1010" font-family="Arial,sans-serif" text-anchor="middle" font-weight="bold">❤ HP</text>
<rect x="250" y="710" width="160" height="280" fill="none" stroke="#888" stroke-width="1" stroke-dasharray="6,4"/>
<circle cx="310" cy="775" r="45" fill="#e83030" stroke="#aa1010" stroke-width="4"/>
<circle cx="370" cy="775" r="45" fill="#e83030" stroke="#aa1010" stroke-width="4"/>
<polygon points="280,820 400,820 340,880" fill="#e83030" stroke="#aa1010" stroke-width="4"/>
<circle cx="320" cy="750" r="14" fill="white" opacity="0.4"/>
<text x="340" y="920" font-size="28" fill="#aa1010" font-family="Arial,sans-serif" text-anchor="middle" font-weight="bold">❤ HP</text>
<rect x="430" y="710" width="160" height="280" fill="none" stroke="#888" stroke-width="1" stroke-dasharray="6,4"/>
<circle cx="490" cy="775" r="45" fill="#e83030" stroke="#aa1010" stroke-width="4"/>
<circle cx="550" cy="775" r="45" fill="#e83030" stroke="#aa1010" stroke-width="4"/>
<polygon points="460,820 580,820 520,880" fill="#e83030" stroke="#aa1010" stroke-width="4"/>
<circle cx="500" cy="750" r="14" fill="white" opacity="0.4"/>
<text x="520" y="920" font-size="28" fill="#aa1010" font-family="Arial,sans-serif" text-anchor="middle" font-weight="bold">❤ HP</text>
<rect x="610" y="710" width="160" height="280" fill="none" stroke="#888" stroke-width="1" stroke-dasharray="6,4"/>
<circle cx="670" cy="775" r="45" fill="#e83030" stroke="#aa1010" stroke-width="4"/>
<circle cx="730" cy="775" r="45" fill="#e83030" stroke="#aa1010" stroke-width="4"/>
<polygon points="640,820 760,820 700,880" fill="#e83030" stroke="#aa1010" stroke-width="4"/>
<circle cx="680" cy="750" r="14" fill="white" opacity="0.4"/>
<text x="700" y="920" font-size="28" fill="#aa1010" font-family="Arial,sans-serif" text-anchor="middle" font-weight="bold">❤ HP</text>
<text x="400" y="1100" font-size="14" fill="#999" font-family="Arial,sans-serif" text-anchor="middle" font-weight="normal">10 сердечек — по 5 каждому игроку. Выдать перед финалом.</text>
</svg>
