<?xml version="1.0" encoding="UTF-8"?>
<svg xmlns="http://www.w3.org/2000/svg" width="210mm" height="297mm" viewBox="0 0 210 297">
<defs>
<style>
  @page { margin: 0; }
  svg { background: white; }
  text { font-family: 'Segoe UI', 'Arial', sans-serif; }
</style>
</defs>
<rect width="210" height="297" fill="white"/>
<text x="15" y="10" font-size="6" font-weight="bold" fill="#999">Крафт-станция — сетка 3×3 для стола</text>
<line x1="15" y1="11" x2="195" y2="11" stroke="#ccc" stroke-width="0.3"/>

<rect x="25" y="35" width="160" height="160" rx="3" fill="#f0e8d8" stroke="#8b6914" stroke-width="2"/>
<rect x="30" y="40" width="50" height="50" fill="#e0d4b8" stroke="#6b4f2e" stroke-width="1.5"/>
<polygon points="55.0,53.0 65.0,60.0 69.0,70.0 55.0,77.0 41.0,70.0 45.0,60.0" fill="#c8e8f8" stroke="#4a8ab8" opacity="0.7"/>
<text x="55.0" y="73.0" font-size="5" fill="#4a8ab8" text-anchor="middle">✦</text>
<rect x="80" y="40" width="50" height="50" fill="#e0d4b8" stroke="#6b4f2e" stroke-width="1.5"/>
<polygon points="105.0,53.0 115.0,60.0 119.0,70.0 105.0,77.0 91.0,70.0 95.0,60.0" fill="#c8e8f8" stroke="#4a8ab8" opacity="0.7"/>
<text x="105.0" y="73.0" font-size="5" fill="#4a8ab8" text-anchor="middle">✦</text>
<rect x="130" y="40" width="50" height="50" fill="#e0d4b8" stroke="#6b4f2e" stroke-width="1.5"/>
<polygon points="155.0,53.0 165.0,60.0 169.0,70.0 155.0,77.0 141.0,70.0 145.0,60.0" fill="#c8e8f8" stroke="#4a8ab8" opacity="0.7"/>
<text x="155.0" y="73.0" font-size="5" fill="#4a8ab8" text-anchor="middle">✦</text>
<rect x="30" y="90" width="50" height="50" fill="#e0d4b8" stroke="#6b4f2e" stroke-width="1.5"/>
<line x1="38" y1="98" x2="72" y2="132" stroke="#a09070" stroke-width="0.8" opacity="0.4"/>
<line x1="72" y1="98" x2="38" y2="132" stroke="#a09070" stroke-width="0.8" opacity="0.4"/>
<rect x="80" y="90" width="50" height="50" fill="#e0d4b8" stroke="#6b4f2e" stroke-width="1.5"/>
<line x1="88" y1="98" x2="122" y2="132" stroke="#a09070" stroke-width="0.8" opacity="0.4"/>
<line x1="122" y1="98" x2="88" y2="132" stroke="#a09070" stroke-width="0.8" opacity="0.4"/>
<rect x="130" y="90" width="50" height="50" fill="#e0d4b8" stroke="#6b4f2e" stroke-width="1.5"/>
<line x1="138" y1="98" x2="172" y2="132" stroke="#a09070" stroke-width="0.8" opacity="0.4"/>
<line x1="172" y1="98" x2="138" y2="132" stroke="#a09070" stroke-width="0.8" opacity="0.4"/>
<rect x="30" y="140" width="50" height="50" fill="#e0d4b8" stroke="#6b4f2e" stroke-width="1.5"/>
<line x1="38" y1="148" x2="72" y2="182" stroke="#a09070" stroke-width="0.8" opacity="0.4"/>
<line x1="72" y1="148" x2="38" y2="182" stroke="#a09070" stroke-width="0.8" opacity="0.4"/>
<rect x="80" y="140" width="50" height="50" fill="#e0d4b8" stroke="#6b4f2e" stroke-width="1.5"/>
<line x1="88" y1="148" x2="122" y2="182" stroke="#a09070" stroke-width="0.8" opacity="0.4"/>
<line x1="122" y1="148" x2="88" y2="182" stroke="#a09070" stroke-width="0.8" opacity="0.4"/>
<rect x="130" y="140" width="50" height="50" fill="#e0d4b8" stroke="#6b4f2e" stroke-width="1.5"/>
<line x1="138" y1="148" x2="172" y2="182" stroke="#a09070" stroke-width="0.8" opacity="0.4"/>
<line x1="172" y1="148" x2="138" y2="182" stroke="#a09070" stroke-width="0.8" opacity="0.4"/>
<text x="105.0" y="30" font-size="7" fill="#6b4f2e" text-anchor="middle">КРАФТ-СТАНОК 3×3</text>
<text x="105.0" y="205" font-size="6" fill="#6b4f2e" text-anchor="middle">Положи 3 алмаза в верхний ряд получи АЛМАЗНЫЙ КЛИНОК!</text>
<rect x="30" y="200" width="150" height="65" rx="3" fill="#f5e6c8" stroke="#8b6914" stroke-width="0.5"/>
<text x="38" y="210.0" font-size="5.5" fill="#3d2b0a">КАК РАБОТАЕТ КРАФТ:</text>
<text x="38" y="216.5" font-size="5.5" fill="#3d2b0a">1. Игроки кладут 3 КРИСТАЛЛА ГЛУБИНЫ</text>
<text x="38" y="223.0" font-size="5.5" fill="#3d2b0a">   в верхние ячейки (ряд с алмазами).</text>
<text x="38" y="229.5" font-size="5.5" fill="#3d2b0a">2. Ведущий (мама/помощник) проверяет.</text>
<text x="38" y="236.0" font-size="5.5" fill="#3d2b0a">3. Вручает АЛМАЗНЫЙ КЛИНОК!</text>
<text x="38" y="242.5" font-size="5.5" fill="#3d2b0a">Рецепт: 3 × Кристалл Глубины = Клинок +1</text>
</svg>
