<?xml version="1.0" encoding="UTF-8"?>
<svg xmlns="http://www.w3.org/2000/svg" viewBox="0 0 800 1131">
<rect width="800" height="1131" fill="#ffffff"/>
<rect x="0" y="0" width="800" height="24" fill="#4a7b2a"/>
<text x="20" y="17" font-size="16" fill="#ffffff" font-family="Arial,sans-serif">Obby — номера этажей для паркура</text>

<rect x="70" y="70" width="280" height="310" fill="none" stroke="#888" stroke-width="1" stroke-dasharray="6,4"/>
<rect x="80" y="80" width="260" height="290" rx="10" fill="#d8f0d8" stroke="#3a7a2a" stroke-width="3"/>
<rect x="80" y="80" width="260" height="55" rx="10" fill="#3a7a2a"/>
<text x="210" y="113" font-size="26" fill="white" font-family="Arial,sans-serif" text-anchor="middle" font-weight="bold">obby</text>
<text x="210" y="270" font-size="90" fill="#3a7a2a" font-family="Arial,sans-serif" text-anchor="middle" font-weight="bold">1</text>
<rect x="270" y="300" width="30" height="60" fill="#44aa44" rx="4"/>
<text x="210" y="350" font-size="16" fill="#3a7a2a" font-family="Arial,sans-serif" text-anchor="middle" font-weight="normal">ЧЕКПОИНТ</text>
<rect x="390" y="70" width="280" height="310" fill="none" stroke="#888" stroke-width="1" stroke-dasharray="6,4"/>
<rect x="400" y="80" width="260" height="290" rx="10" fill="#d8f0d8" stroke="#3a7a2a" stroke-width="3"/>
<rect x="400" y="80" width="260" height="55" rx="10" fill="#3a7a2a"/>
<text x="530" y="113" font-size="26" fill="white" font-family="Arial,sans-serif" text-anchor="middle" font-weight="bold">obby</text>
<text x="530" y="270" font-size="90" fill="#3a7a2a" font-family="Arial,sans-serif" text-anchor="middle" font-weight="bold">2</text>
<rect x="590" y="300" width="30" height="60" fill="#44aa44" rx="4"/>
<text x="530" y="350" font-size="16" fill="#3a7a2a" font-family="Arial,sans-serif" text-anchor="middle" font-weight="normal">ЧЕКПОИНТ</text>
<rect x="70" y="410" width="280" height="310" fill="none" stroke="#888" stroke-width="1" stroke-dasharray="6,4"/>
<rect x="80" y="420" width="260" height="290" rx="10" fill="#d8f0d8" stroke="#3a7a2a" stroke-width="3"/>
<rect x="80" y="420" width="260" height="55" rx="10" fill="#3a7a2a"/>
<text x="210" y="453" font-size="26" fill="white" font-family="Arial,sans-serif" text-anchor="middle" font-weight="bold">obby</text>
<text x="210" y="610" font-size="90" fill="#3a7a2a" font-family="Arial,sans-serif" text-anchor="middle" font-weight="bold">3</text>
<rect x="270" y="640" width="30" height="60" fill="#44aa44" rx="4"/>
<text x="210" y="690" font-size="16" fill="#3a7a2a" font-family="Arial,sans-serif" text-anchor="middle" font-weight="normal">ЧЕКПОИНТ</text>
<rect x="390" y="410" width="280" height="310" fill="none" stroke="#888" stroke-width="1" stroke-dasharray="6,4"/>
<rect x="400" y="420" width="260" height="290" rx="10" fill="#d8f0d8" stroke="#3a7a2a" stroke-width="3"/>
<rect x="400" y="420" width="260" height="55" rx="10" fill="#3a7a2a"/>
<text x="530" y="453" font-size="26" fill="white" font-family="Arial,sans-serif" text-anchor="middle" font-weight="bold">obby</text>
<text x="530" y="610" font-size="90" fill="#3a7a2a" font-family="Arial,sans-serif" text-anchor="middle" font-weight="bold">4</text>
<rect x="590" y="640" width="30" height="60" fill="#44aa44" rx="4"/>
<text x="530" y="690" font-size="16" fill="#3a7a2a" font-family="Arial,sans-serif" text-anchor="middle" font-weight="normal">ЧЕКПОИНТ</text>
<rect x="230" y="750" width="280" height="310" fill="none" stroke="#888" stroke-width="1" stroke-dasharray="6,4"/>
<rect x="240" y="760" width="260" height="290" rx="10" fill="#d8f0d8" stroke="#3a7a2a" stroke-width="3"/>
<rect x="240" y="760" width="260" height="55" rx="10" fill="#3a7a2a"/>
<text x="370" y="793" font-size="26" fill="white" font-family="Arial,sans-serif" text-anchor="middle" font-weight="bold">obby</text>
<text x="370" y="950" font-size="90" fill="#3a7a2a" font-family="Arial,sans-serif" text-anchor="middle" font-weight="bold">5</text>
<rect x="430" y="980" width="30" height="60" fill="#44aa44" rx="4"/>
<text x="370" y="1030" font-size="16" fill="#3a7a2a" font-family="Arial,sans-serif" text-anchor="middle" font-weight="normal">ЧЕКПОИНТ</text>
</svg>
